<svg width="218" height="213" viewBox="0 0 218 213" fill="none" xmlns="http://www.w3.org/2000/svg">
<path opacity="0.4" fill-rule="evenodd" clip-rule="evenodd" d="M149.588 69.3835C126.602 48.9274 116.611 30.5795 89.519 23.9525C64.713 19.651 45.221 27.1974 38.5169 49.0376C32.656 68.1309 30.6851 86.2937 42.9965 110.322C55.8891 131.958 69.023 151.933 91.5644 163.782C117.968 177.661 131.351 176.381 155.971 175.491C183.368 171.41 203.956 152.371 197.283 123.589C186.301 88.4376 173.341 90.5231 149.588 69.3835Z" fill="#DEE3EB"/>
<path opacity="0.7" d="M108.603 195.921C121.858 195.921 132.603 193.7 132.603 190.961C132.603 188.221 121.858 186 108.603 186C95.3479 186 84.6028 188.221 84.6028 190.961C84.6028 193.7 95.3479 195.921 108.603 195.921Z" fill="url(#paint0_linear_503_4997)" fill-opacity="0.4"/>
<circle cx="146.663" cy="129.561" r="22.9993" transform="rotate(-8.10643 146.663 129.561)" fill="#457EFF"/>
<circle cx="135.46" cy="103.48" r="16.4937" transform="rotate(-8.10643 135.46 103.48)" fill="#457EFF"/>
<circle cx="78.9882" cy="111.524" r="13.0223" transform="rotate(-8.10643 78.9882 111.524)" fill="#457EFF"/>
<circle cx="75.7561" cy="135.604" r="26.9883" transform="rotate(-8.10643 75.7561 135.604)" fill="#457EFF"/>
<circle cx="106.847" cy="101.09" r="30.7188" transform="rotate(-8.10643 106.847 101.09)" fill="#457EFF"/>
<path d="M143.728 120.491L148.292 152.534L112.402 157.546C112.402 157.546 92.3169 160.534 82.0034 161.974C78.3732 162.481 76.5119 162.559 76.5119 162.559L91.4274 127.94L143.728 120.491Z" fill="#457EFF"/>
<circle cx="89.3786" cy="98.6108" r="18.7048" transform="rotate(-8.10643 89.3786 98.6108)" fill="#ECF0F6"/>
<circle cx="89.3789" cy="98.6107" r="18.2622" transform="rotate(-8.10643 89.3789 98.6107)" fill="#FFFEFE"/>
<circle cx="92.7766" cy="90.5791" r="4.06446" transform="rotate(-8.10643 92.7766 90.5791)" fill="#454545"/>
<path d="M131.808 127.32C132.973 131.537 128.821 139.189 121.726 140.409C113.281 141.561 106.696 136.02 106.349 131.799C106.091 128.661 112.2 125.678 117.569 124.835C123.673 123.876 131.003 124.402 131.808 127.32Z" fill="white"/>
<circle cx="144.744" cy="95.3461" r="13.6863" transform="rotate(-8.10643 144.744 95.3461)" fill="#ECF0F6"/>
<circle cx="144.741" cy="95.3453" r="13.3624" transform="rotate(-8.10643 144.741 95.3453)" fill="#FFFEFE"/>
<circle cx="143.842" cy="103.351" r="3.30154" transform="rotate(-8.10643 143.842 103.351)" fill="#454545"/>
<ellipse cx="148.415" cy="120.346" rx="5.71637" ry="3.17871" transform="rotate(-8.10643 148.415 120.346)" fill="#FFC6C6"/>
<path fill-rule="evenodd" clip-rule="evenodd" d="M152.025 118.894C152.198 118.92 152.318 119.083 152.291 119.256L151.905 121.796C151.879 121.97 151.716 122.089 151.542 122.063C151.369 122.036 151.249 121.874 151.275 121.7L151.662 119.161C151.688 118.987 151.851 118.867 152.025 118.894Z" fill="black"/>
<path fill-rule="evenodd" clip-rule="evenodd" d="M153.19 118.727C153.363 118.754 153.483 118.916 153.456 119.09L153.07 121.63C153.044 121.804 152.881 121.923 152.707 121.897C152.534 121.87 152.414 121.708 152.441 121.534L152.827 118.994C152.853 118.82 153.016 118.701 153.19 118.727Z" fill="black"/>
<path fill-rule="evenodd" clip-rule="evenodd" d="M154.357 118.561C154.53 118.587 154.65 118.749 154.623 118.923L154.237 121.463C154.211 121.637 154.048 121.756 153.874 121.73C153.701 121.703 153.581 121.541 153.608 121.367L153.994 118.828C154.02 118.654 154.183 118.534 154.357 118.561Z" fill="black"/>
<ellipse cx="87.858" cy="128.948" rx="5.71637" ry="3.17871" transform="rotate(-4.05113 87.858 128.948)" fill="#FFC6C6"/>
<path fill-rule="evenodd" clip-rule="evenodd" d="M83.6643 129.076C83.8382 129.103 83.9577 129.265 83.9312 129.439L83.5535 131.922C83.5271 132.096 83.3647 132.215 83.1908 132.189C83.0169 132.163 82.8974 132 82.9239 131.826L83.3016 129.343C83.328 129.169 83.4904 129.05 83.6643 129.076Z" fill="black"/>
<path fill-rule="evenodd" clip-rule="evenodd" d="M84.8078 128.914C84.9817 128.94 85.1012 129.103 85.0748 129.277L84.6971 131.759C84.6706 131.933 84.5082 132.053 84.3344 132.026C84.1605 132 84.041 131.838 84.0674 131.664L84.4451 129.181C84.4716 129.007 84.634 128.887 84.8078 128.914Z" fill="black"/>
<path fill-rule="evenodd" clip-rule="evenodd" d="M85.9465 128.752C86.1204 128.778 86.2399 128.941 86.2134 129.114L85.8358 131.597C85.8093 131.771 85.6469 131.891 85.473 131.864C85.2992 131.838 85.1796 131.675 85.2061 131.502L85.5838 129.019C85.6102 128.845 85.7726 128.725 85.9465 128.752Z" fill="black"/>
<path d="M165.875 129.425C167.738 129.655 169.926 130.602 174.345 129.459C178.763 128.316 181.627 125.903 183.857 123.811" stroke="#404247" stroke-linecap="round"/>
<path d="M53.9637 125.71C51.3679 124.042 45.0342 116.447 42.7579 109.822C40.7785 104.062 41.0406 96.9743 41.3341 93.9055" stroke="#404247" stroke-linecap="round"/>
<circle cx="41.6129" cy="89.2061" r="4.62949" transform="rotate(-8.10643 41.6129 89.2061)" fill="#404247"/>
<circle cx="4.62675" cy="4.62675" r="4.62675" transform="matrix(0.990008 -0.141012 -0.141012 -0.990008 180.041 126.393)" fill="#404247"/>
<path fill-rule="evenodd" clip-rule="evenodd" d="M93.0808 121.801C106.538 119.653 113.859 108.511 112.421 96.9261C110.809 83.9281 99.462 75.1506 87.4767 76.6377C75.4915 78.1249 65.8462 88.8389 67.3334 100.824C68.8206 112.809 79.8657 123.91 93.0808 121.801ZM93.0706 125.656C108.314 123.765 119.138 109.874 117.246 94.6308C115.355 79.3875 101.464 68.5636 86.2211 70.4551C70.9778 72.3466 60.1539 86.237 62.0454 101.48C63.9369 116.724 77.8273 127.547 93.0706 125.656Z" fill="#404247"/>
<path fill-rule="evenodd" clip-rule="evenodd" d="M146.611 112.907C155.442 111.811 161.777 103.378 160.681 94.548C159.586 85.7176 151.902 78.1833 141.924 79.4214C130.946 80.7837 126.473 89.396 127.569 98.2264C128.665 107.057 137.781 114.003 146.611 112.907ZM147.239 117.963C158.862 116.521 167.115 105.93 165.673 94.3069C164.23 82.6839 153.639 74.4308 142.016 75.873C130.393 77.3152 122.14 87.9067 123.582 99.5296C125.024 111.153 135.616 119.406 147.239 117.963Z" fill="#404247"/>
<path fill-rule="evenodd" clip-rule="evenodd" d="M119.999 91.003C117.061 92.8304 116.929 97.2735 118.407 99.6503C119.886 102.027 123.011 102.755 125.387 101.277C125.472 101.225 125.53 101.188 125.57 101.162L125.574 101.157C125.634 101.086 125.727 100.975 125.844 100.841L129.638 104.161C129.559 104.251 129.505 104.315 129.447 104.385C129.431 104.404 129.415 104.423 129.398 104.443C129.329 104.526 129.203 104.675 129.043 104.829C128.716 105.144 128.359 105.366 128.075 105.543L128.05 105.558C123.309 108.507 117.075 107.054 114.126 102.313C111.178 97.5717 112.631 91.3379 117.372 88.3891C118.682 87.5741 120.216 87.3011 120.91 87.215L121.479 90.4787C121.295 90.5015 121.013 90.5783 120.708 90.6652C120.392 90.7553 120.156 90.9058 119.999 91.003Z" fill="#404247"/>
<path fill-rule="evenodd" clip-rule="evenodd" d="M56.4147 102.547L59.4434 102.171L57.9585 112.491L68.705 110.68L69.3324 115.736L52.8246 117.785L56.4147 102.547Z" fill="#404247"/>
<rect x="29.9468" y="45.9202" width="33.2139" height="33.2139" rx="3.18483" transform="rotate(11.6316 29.9468 45.9202)" fill="#192030"/>
<path d="M36.1512 77.07C38.4287 77.5388 40.6589 76.0646 41.1293 73.7794L41.9815 69.6395L37.8556 68.7902C35.5781 68.3214 33.348 69.7956 32.8776 72.0808C32.4072 74.3661 33.8738 76.6012 36.1512 77.07Z" fill="#0ACF83"/>
<path d="M34.582 63.801C35.0524 61.5158 37.2826 60.0416 39.5601 60.5104L43.6859 61.3597L41.9816 69.6395L37.8557 68.7902C35.5782 68.3214 34.1116 66.0863 34.582 63.801Z" fill="#A259FF"/>
<path d="M36.2861 55.5213C36.7565 53.236 38.9867 51.7618 41.2642 52.2306L45.39 53.0799L43.6857 61.3597L39.5598 60.5105C37.2823 60.0417 35.8157 57.8065 36.2861 55.5213Z" fill="#F24E1E"/>
<path d="M45.3906 53.0798L49.5165 53.9291C51.794 54.3979 53.2606 56.6331 52.7902 58.9183C52.3198 61.2036 50.0896 62.6778 47.8121 62.2089L43.6863 61.3597L45.3906 53.0798Z" fill="#FF7262"/>
<path d="M51.0857 67.1981C50.6153 69.4833 48.3851 70.9575 46.1077 70.4887C43.8302 70.0199 42.3636 67.7848 42.834 65.4995C43.3044 63.2143 45.5345 61.7401 47.812 62.2089C50.0895 62.6777 51.5561 64.9129 51.0857 67.1981Z" fill="#1ABCFE"/>
<circle cx="193.672" cy="93.9449" r="21.9449" fill="#40495E"/>
<path d="M203.239 89.5802C202.922 89.4716 202.602 89.371 202.279 89.2784C202.333 89.0576 202.383 88.8394 202.428 88.6251C203.154 85.1057 202.679 82.2703 201.057 81.3368C199.502 80.4419 196.958 81.375 194.39 83.6062C194.136 83.8265 193.889 84.0532 193.647 84.2859C193.485 84.1311 193.321 83.9794 193.153 83.8307C190.461 81.445 187.763 80.4395 186.142 81.3757C184.589 82.2735 184.129 84.9389 184.783 88.2743C184.848 88.6047 184.921 88.9333 185.003 89.2599C184.621 89.3682 184.252 89.4835 183.9 89.6063C180.743 90.7046 178.728 92.4258 178.728 94.2111C178.728 96.0551 180.891 97.9046 184.179 99.026C184.445 99.1166 184.714 99.2005 184.985 99.2777C184.897 99.6294 184.819 99.9836 184.751 100.34C184.127 103.617 184.614 106.22 186.164 107.112C187.764 108.033 190.451 107.086 193.066 104.804C193.278 104.619 193.486 104.428 193.688 104.232C193.95 104.484 194.219 104.729 194.494 104.966C197.028 107.142 199.53 108.02 201.079 107.126C202.678 106.202 203.197 103.406 202.523 100.005C202.469 99.7385 202.41 99.4734 202.344 99.2098C202.532 99.154 202.718 99.0966 202.898 99.0368C206.316 97.9068 208.539 96.0797 208.539 94.2111C208.539 92.4193 206.459 90.6865 203.239 89.5802ZM202.498 97.8304C202.335 97.8842 202.167 97.9362 201.997 97.9867C201.62 96.7946 201.11 95.5271 200.487 94.2173C201.082 92.9388 201.572 91.6874 201.938 90.5031C202.243 90.5912 202.539 90.684 202.824 90.782C205.583 91.73 207.266 93.1313 207.266 94.2111C207.266 95.3613 205.449 96.8545 202.498 97.8304ZM201.273 100.252C201.572 101.756 201.614 103.116 201.417 104.179C201.239 105.134 200.882 105.771 200.44 106.026C199.501 106.569 197.492 105.863 195.325 104.002C195.069 103.782 194.819 103.554 194.575 103.32C195.415 102.403 196.255 101.337 197.074 100.153C198.516 100.026 199.877 99.817 201.112 99.5321C201.171 99.7707 201.225 100.011 201.273 100.252ZM188.891 105.932C187.973 106.256 187.242 106.265 186.8 106.011C185.86 105.469 185.469 103.38 186.002 100.577C186.066 100.246 186.138 99.9162 186.22 99.589C187.441 99.8587 188.793 100.053 190.237 100.169C191.062 101.328 191.926 102.393 192.796 103.325C192.611 103.504 192.422 103.678 192.228 103.847C191.072 104.856 189.913 105.572 188.891 105.932ZM184.591 97.8233C183.137 97.3274 181.937 96.6829 181.114 95.9796C180.374 95.3477 180.001 94.7202 180.001 94.2111C180.001 93.1277 181.62 91.7458 184.319 90.8065C184.646 90.6926 184.989 90.5851 185.345 90.4842C185.718 91.6953 186.207 92.9616 186.798 94.2421C186.2 95.5415 185.703 96.828 185.327 98.0533C185.08 97.9827 184.834 97.906 184.591 97.8233ZM186.032 88.0301C185.472 85.1725 185.844 83.0168 186.781 82.4758C187.778 81.8996 189.983 82.7212 192.308 84.7812C192.459 84.9158 192.609 85.0532 192.755 85.1932C191.889 86.1215 191.033 87.1783 190.215 88.3299C188.813 88.4596 187.471 88.6679 186.237 88.9469C186.161 88.6431 186.093 88.3375 186.032 88.0303V88.0301ZM198.892 91.1994C198.6 90.6969 198.298 90.2008 197.985 89.7113C198.937 89.8314 199.848 89.9908 200.704 90.1855C200.447 91.0075 200.127 91.8668 199.75 92.7477C199.474 92.226 199.188 91.7098 198.892 91.1994ZM193.648 86.1016C194.235 86.7368 194.824 87.4459 195.402 88.2153C194.228 88.16 193.053 88.1597 191.879 88.2146C192.458 87.4523 193.051 86.7441 193.648 86.1016ZM188.37 91.2081C188.078 91.7144 187.797 92.2274 187.528 92.7467C187.158 91.8688 186.84 91.0056 186.581 90.1721C187.432 89.9822 188.339 89.8269 189.284 89.709C188.968 90.2015 188.663 90.7013 188.37 91.208V91.2081ZM189.311 98.8037C188.335 98.6949 187.414 98.5477 186.564 98.3629C186.827 97.5144 187.151 96.6328 187.53 95.7361C187.8 96.2559 188.081 96.7692 188.375 97.2757C188.677 97.7964 188.99 98.3064 189.311 98.8037ZM193.683 102.41C193.079 101.76 192.477 101.041 191.889 100.268C192.46 100.29 193.042 100.302 193.634 100.302C194.241 100.302 194.842 100.288 195.433 100.262C194.853 101.049 194.266 101.769 193.683 102.41ZM199.762 95.6904C200.16 96.5969 200.496 97.4738 200.763 98.3078C199.898 98.5046 198.965 98.6632 197.982 98.7809C198.297 98.2824 198.602 97.7776 198.897 97.267C199.197 96.7479 199.485 96.2222 199.762 95.6904ZM197.794 96.6319C197.342 97.4148 196.865 98.1829 196.364 98.9349C195.455 98.9991 194.544 99.031 193.634 99.0306C192.706 99.0306 191.803 99.0017 190.934 98.9455C190.42 98.1952 189.934 97.4258 189.477 96.6389H189.477C189.023 95.8561 188.599 95.0564 188.205 94.2415C188.598 93.4264 189.021 92.6263 189.473 91.8429L189.473 91.843C189.926 91.0595 190.408 90.2933 190.919 89.5463C191.805 89.4794 192.715 89.4445 193.633 89.4445H193.634C194.557 89.4445 195.467 89.4797 196.353 89.5471C196.859 90.293 197.338 91.0565 197.79 91.8362C198.244 92.6178 198.672 93.414 199.075 94.2235C198.677 95.0412 198.249 95.8445 197.794 96.6319ZM200.421 82.4379C201.419 83.0125 201.807 85.3297 201.18 88.3685C201.14 88.5623 201.095 88.7598 201.046 88.9601C199.809 88.6751 198.466 88.4632 197.06 88.3315C196.241 87.1673 195.392 86.1088 194.54 85.1925C194.763 84.9776 194.992 84.7684 195.226 84.5649C197.427 82.6533 199.484 81.8985 200.421 82.4379ZM193.634 91.5542C195.104 91.5542 196.296 92.7438 196.296 94.2111C196.296 95.6785 195.104 96.8681 193.634 96.8681C192.163 96.8681 190.971 95.6785 190.971 94.2111C190.971 92.7438 192.163 91.5542 193.634 91.5542Z" fill="#00D8FF"/>
<path d="M130.017 29.9979L130.095 29.504L130.017 29.9979ZM183.117 70.9233L183.562 65.167L178.355 67.66L183.117 70.9233ZM64.1254 50.1583C64.4375 49.8115 64.7727 49.4556 65.1305 49.092L64.4178 48.3905C64.0501 48.7641 63.7047 49.1309 63.3821 49.4894L64.1254 50.1583ZM67.2769 47.0665C67.9806 46.4458 68.7405 45.8126 69.5549 45.1727L68.9371 44.3864C68.1084 45.0376 67.3339 45.6829 66.6155 46.3165L67.2769 47.0665ZM71.9359 43.3968C72.7159 42.8439 73.5343 42.2902 74.39 41.7393L73.8487 40.8985C72.9806 41.4573 72.1498 42.0194 71.3576 42.5809L71.9359 43.3968ZM76.9203 40.1854C77.7551 39.6963 78.6193 39.2125 79.5121 38.7366L79.0417 37.8542C78.137 38.3364 77.2611 38.8268 76.4149 39.3225L76.9203 40.1854ZM82.1614 37.3904C83.0362 36.967 83.9348 36.5526 84.8565 36.1492L84.4556 35.2331C83.5221 35.6416 82.612 36.0614 81.7257 36.4903L82.1614 37.3904ZM87.6031 35.0086C88.5114 34.6513 89.4396 34.3057 90.3872 33.9733L90.0562 33.0297C89.0968 33.3662 88.1569 33.7162 87.237 34.078L87.6031 35.0086ZM93.2057 33.0434C94.1403 32.7542 95.0918 32.4786 96.0597 32.2182L95.7999 31.2525C94.8198 31.5163 93.8564 31.7953 92.9101 32.0881L93.2057 33.0434ZM98.9444 31.4991C99.9 31.2796 100.87 31.0753 101.855 30.8875L101.667 29.9052C100.671 30.0954 99.6882 30.3023 98.7206 30.5244L98.9444 31.4991ZM104.78 30.3854C105.748 30.2375 106.729 30.106 107.723 29.9918L107.608 28.9983C106.603 29.1139 105.609 29.2471 104.629 29.3968L104.78 30.3854ZM110.679 29.7072C111.656 29.6313 112.645 29.5725 113.644 29.5318L113.603 28.5327C112.592 28.5739 111.591 28.6334 110.601 28.7102L110.679 29.7072ZM116.614 29.4654C117.594 29.4614 118.585 29.4751 119.584 29.5074L119.617 28.5079C118.605 28.4752 117.602 28.4614 116.61 28.4654L116.614 29.4654ZM122.552 29.6567C123.53 29.7236 124.517 29.8085 125.512 29.9122L125.615 28.9175C124.609 28.8126 123.61 28.7267 122.62 28.659L122.552 29.6567ZM128.461 30.272C128.952 30.3406 129.445 30.4139 129.939 30.4918L130.095 29.504C129.595 29.4252 129.096 29.3511 128.6 29.2817L128.461 30.272ZM129.939 30.4918C130.419 30.5675 130.896 30.6478 131.369 30.7327L131.546 29.7484C131.066 29.6623 130.582 29.5808 130.095 29.504L129.939 30.4918ZM134.195 31.3019C135.143 31.514 136.076 31.7443 136.994 31.9919L137.254 31.0264C136.322 30.7751 135.375 30.5413 134.414 30.3261L134.195 31.3019ZM139.76 32.8027C140.685 33.0959 141.594 33.4067 142.488 33.7337L142.831 32.7947C141.924 32.4626 141.001 32.1472 140.062 31.8495L139.76 32.8027ZM145.172 34.7835C146.067 35.1565 146.945 35.5457 147.807 35.9498L148.231 35.0445C147.357 34.6342 146.465 34.2391 145.556 33.8605L145.172 34.7835ZM150.388 37.2297C151.247 37.6792 152.089 38.1433 152.912 38.6205L153.414 37.7552C152.577 37.2709 151.723 36.7999 150.851 36.3437L150.388 37.2297ZM155.378 40.1197C156.197 40.6415 156.997 41.1758 157.779 41.7209L158.351 40.9008C157.558 40.3478 156.746 39.8058 155.916 39.2764L155.378 40.1197ZM160.11 43.4193C160.883 44.0068 161.636 44.6042 162.369 45.2096L163.006 44.4383C162.262 43.8246 161.499 43.219 160.715 42.6232L160.11 43.4193ZM164.557 47.0888C165.284 47.7382 165.99 48.3942 166.674 49.0547L167.369 48.3351C166.675 47.6659 165.96 47.0011 165.224 46.343L164.557 47.0888ZM168.713 51.0972C169.389 51.8005 170.042 52.5064 170.672 53.2122L171.418 52.5463C170.78 51.8315 170.118 51.1166 169.433 50.4042L168.713 51.0972ZM172.558 55.4042C173.183 56.1588 173.783 56.9102 174.357 57.6553L175.149 57.0452C174.568 56.2907 173.961 55.5299 173.327 54.7659L172.558 55.4042ZM176.08 59.9788C176.655 60.7835 177.198 61.5765 177.711 62.3535L178.546 61.8025C178.026 61.0155 177.476 60.2125 176.894 59.3976L176.08 59.9788ZM179.258 64.7938C179.782 65.6567 180.265 66.4914 180.707 67.2912L181.582 66.807C181.133 65.9956 180.644 65.1492 180.113 64.2747L179.258 64.7938Z" fill="#96A2BE"/>
<circle cx="193.673" cy="93.9449" r="21.9449" fill="#40495E"/>
<path d="M186.219 105.663L193.672 108.116L201.125 105.663L202.348 88.4719H184.997L186.219 105.663ZM199.255 91.3495L199.091 93.6516H190.564L190.771 96.6059H198.885L198.391 103.535L193.672 105.112L188.953 103.535L188.791 101.21H191.093L191.14 101.843L193.672 102.683L196.204 101.843L196.411 98.908H188.619L188.089 91.3495H199.255Z" fill="#FF5722"/>
<path d="M186.725 86.7514V84.9613H188.403V86.7514H189.264V82.5745H188.403V84.267H186.725V82.5745H185.865V86.7514H186.725ZM191.88 86.7514V83.2716H193.16V82.5745H189.758V83.2716H191.02V86.7514H191.88ZM194.511 86.7514V85.6096L194.425 83.6416L195.55 86.7514H196.141L197.268 83.6388L197.182 85.6096V86.7514H198.045V82.5745H196.915L195.848 85.6039L194.775 82.5745H193.65V86.7514H194.511ZM201.485 86.7514V86.06H199.658V82.5745H198.797V86.7514H201.485Z" fill="white"/>
<defs>
<linearGradient id="paint0_linear_503_4997" x1="79.742" y1="190.961" x2="136.152" y2="190.961" gradientUnits="userSpaceOnUse">
<stop stop-opacity="0.28"/>
<stop offset="1" stop-opacity="0.05"/>
</linearGradient>
</defs>
</svg>
